<svg width="770" height="380" viewBox="0 0 770 380" fill="none" xmlns="http://www.w3.org/2000/svg">
<rect width="770" height="380" fill="url(#paint0_linear_2_171)"/>
<g clip-path="url(#clip0_2_171)">
<path d="M129.188 39.875V48.8125H138.125C140.583 48.8125 142.594 50.8234 142.594 53.2812C142.594 55.7391 140.583 57.75 138.125 57.75H129.188V66.6875C129.188 69.1453 127.177 71.1562 124.719 71.1562C122.261 71.1562 120.25 69.1453 120.25 66.6875V57.75H111.312C108.855 57.75 106.844 55.7391 106.844 53.2812C106.844 50.8234 108.855 48.8125 111.312 48.8125H120.25V39.875C120.25 37.4172 122.261 35.4062 124.719 35.4062C127.177 35.4062 129.188 37.4172 129.188 39.875ZM30.875 48.8125H57.6875C60.1453 48.8125 62.1562 50.8234 62.1562 53.2812C62.1562 55.7391 60.1453 57.75 57.6875 57.75H30.875C28.4172 57.75 26.4062 55.7391 26.4062 53.2812C26.4062 50.8234 28.4172 48.8125 30.875 48.8125ZM36.2654 119.391L44.2812 127.407L52.2971 119.391C54.0287 117.659 56.8775 117.659 58.6092 119.391C60.3408 121.122 60.3408 123.971 58.6092 125.703L50.5934 133.719L58.6092 141.735C60.3408 143.466 60.3408 146.315 58.6092 148.047C56.8775 149.778 54.0287 149.778 52.2971 148.047L44.2812 140.031L36.2654 148.047C34.5338 149.778 31.685 149.778 29.9533 148.047C28.2217 146.315 28.2217 143.466 29.9533 141.735L37.9691 133.719L29.9533 125.703C28.2217 123.971 28.2217 121.122 29.9533 119.391C31.685 117.659 34.5338 117.659 36.2654 119.391ZM93.4375 115.844C93.4375 108.442 99.4424 102.438 106.844 102.438H142.594C149.995 102.438 156 108.442 156 115.844V151.594C156 158.995 149.995 165 142.594 165H106.844C99.4424 165 93.4375 158.995 93.4375 151.594V115.844ZM106.844 124.781C106.844 127.239 108.855 129.25 111.312 129.25H138.125C140.583 129.25 142.594 127.239 142.594 124.781C142.594 122.323 140.583 120.312 138.125 120.312H111.312C108.855 120.312 106.844 122.323 106.844 124.781ZM106.844 142.656C106.844 145.114 108.855 147.125 111.312 147.125H138.125C140.583 147.125 142.594 145.114 142.594 142.656C142.594 140.198 140.583 138.188 138.125 138.188H111.312C108.855 138.188 106.844 140.198 106.844 142.656Z" fill="white" fill-opacity="0.23"/>
<path opacity="0.4" d="M26.4062 22C19.0049 22 13 28.0049 13 35.4062V71.1562C13 78.5576 19.0049 84.5625 26.4062 84.5625H62.1562C69.5576 84.5625 75.5625 78.5576 75.5625 71.1562V35.4062C75.5625 28.0049 69.5576 22 62.1562 22H26.4062ZM106.844 22C99.4424 22 93.4375 28.0049 93.4375 35.4062V71.1562C93.4375 78.5576 99.4424 84.5625 106.844 84.5625H142.594C149.995 84.5625 156 78.5576 156 71.1562V35.4062C156 28.0049 149.995 22 142.594 22H106.844ZM13 115.844V151.594C13 158.995 19.0049 165 26.4062 165H62.1562C69.5576 165 75.5625 158.995 75.5625 151.594V115.844C75.5625 108.442 69.5576 102.438 62.1562 102.438H26.4062C19.0049 102.438 13 108.442 13 115.844ZM129.188 39.875V48.8125H138.125C140.583 48.8125 142.594 50.8234 142.594 53.2812C142.594 55.7391 140.583 57.75 138.125 57.75H129.188V66.6875C129.188 69.1453 127.177 71.1562 124.719 71.1562C122.261 71.1562 120.25 69.1453 120.25 66.6875V57.75H111.312C108.855 57.75 106.844 55.7391 106.844 53.2812C106.844 50.8234 108.855 48.8125 111.312 48.8125H120.25V39.875C120.25 37.4172 122.261 35.4062 124.719 35.4062C127.177 35.4062 129.188 37.4172 129.188 39.875ZM30.875 48.8125H57.6875C60.1453 48.8125 62.1562 50.8234 62.1562 53.2812C62.1562 55.7391 60.1453 57.75 57.6875 57.75H30.875C28.4172 57.75 26.4062 55.7391 26.4062 53.2812C26.4062 50.8234 28.4172 48.8125 30.875 48.8125ZM36.2654 119.391L44.2812 127.407L52.2971 119.391C54.0287 117.659 56.8775 117.659 58.6092 119.391C60.3408 121.122 60.3408 123.971 58.6092 125.703L50.5934 133.719L58.6092 141.735C60.3408 143.466 60.3408 146.315 58.6092 148.047C56.8775 149.778 54.0287 149.778 52.2971 148.047L44.2812 140.031L36.2654 148.047C34.5338 149.778 31.685 149.778 29.9533 148.047C28.2217 146.315 28.2217 143.466 29.9533 141.735L37.9691 133.719L29.9533 125.703C28.2217 123.971 28.2217 121.122 29.9533 119.391C31.685 117.659 34.5338 117.659 36.2654 119.391Z" fill="white" fill-opacity="0.23"/>
</g>
<defs>
<linearGradient id="paint0_linear_2_171" x1="4.5" y1="2.49999" x2="770" y2="380" gradientUnits="userSpaceOnUse">
<stop offset="0.0898066" stop-color="#1C6DAB" stop-opacity="0.5"/>
<stop offset="1" stop-color="#0A2463"/>
</linearGradient>
<clipPath id="clip0_2_171">
<rect width="143" height="143" fill="white" transform="translate(13 22)"/>
</clipPath>
</defs>
</svg>
