<svg width="58" height="58" viewBox="0 0 58 58" fill="none" xmlns="http://www.w3.org/2000/svg">
<path d="M14.5 0C10.5012 0 7.25 3.25117 7.25 7.25V50.75C7.25 54.7488 10.5012 58 14.5 58H43.5C47.4988 58 50.75 54.7488 50.75 50.75V7.25C50.75 3.25117 47.4988 0 43.5 0H14.5ZM18.125 7.25H39.875C41.8801 7.25 43.5 8.86992 43.5 10.875V14.5C43.5 16.5051 41.8801 18.125 39.875 18.125H18.125C16.1199 18.125 14.5 16.5051 14.5 14.5V10.875C14.5 8.86992 16.1199 7.25 18.125 7.25ZM21.75 25.375C21.75 26.3364 21.3681 27.2584 20.6883 27.9383C20.0084 28.6181 19.0864 29 18.125 29C17.1636 29 16.2416 28.6181 15.5617 27.9383C14.8819 27.2584 14.5 26.3364 14.5 25.375C14.5 24.4136 14.8819 23.4916 15.5617 22.8117C16.2416 22.1319 17.1636 21.75 18.125 21.75C19.0864 21.75 20.0084 22.1319 20.6883 22.8117C21.3681 23.4916 21.75 24.4136 21.75 25.375ZM18.125 39.875C17.1636 39.875 16.2416 39.4931 15.5617 38.8133C14.8819 38.1334 14.5 37.2114 14.5 36.25C14.5 35.2886 14.8819 34.3666 15.5617 33.6867C16.2416 33.0069 17.1636 32.625 18.125 32.625C19.0864 32.625 20.0084 33.0069 20.6883 33.6867C21.3681 34.3666 21.75 35.2886 21.75 36.25C21.75 37.2114 21.3681 38.1334 20.6883 38.8133C20.0084 39.4931 19.0864 39.875 18.125 39.875ZM14.5 47.125C14.5 45.1199 16.1199 43.5 18.125 43.5H29C31.0051 43.5 32.625 45.1199 32.625 47.125C32.625 49.1301 31.0051 50.75 29 50.75H18.125C16.1199 50.75 14.5 49.1301 14.5 47.125ZM29 29C28.0386 29 27.1166 28.6181 26.4367 27.9383C25.7569 27.2584 25.375 26.3364 25.375 25.375C25.375 24.4136 25.7569 23.4916 26.4367 22.8117C27.1166 22.1319 28.0386 21.75 29 21.75C29.9614 21.75 30.8834 22.1319 31.5633 22.8117C32.2431 23.4916 32.625 24.4136 32.625 25.375C32.625 26.3364 32.2431 27.2584 31.5633 27.9383C30.8834 28.6181 29.9614 29 29 29ZM32.625 36.25C32.625 37.2114 32.2431 38.1334 31.5633 38.8133C30.8834 39.4931 29.9614 39.875 29 39.875C28.0386 39.875 27.1166 39.4931 26.4367 38.8133C25.7569 38.1334 25.375 37.2114 25.375 36.25C25.375 35.2886 25.7569 34.3666 26.4367 33.6867C27.1166 33.0069 28.0386 32.625 29 32.625C29.9614 32.625 30.8834 33.0069 31.5633 33.6867C32.2431 34.3666 32.625 35.2886 32.625 36.25ZM39.875 29C38.9136 29 37.9916 28.6181 37.3117 27.9383C36.6319 27.2584 36.25 26.3364 36.25 25.375C36.25 24.4136 36.6319 23.4916 37.3117 22.8117C37.9916 22.1319 38.9136 21.75 39.875 21.75C40.8364 21.75 41.7584 22.1319 42.4383 22.8117C43.1181 23.4916 43.5 24.4136 43.5 25.375C43.5 26.3364 43.1181 27.2584 42.4383 27.9383C41.7584 28.6181 40.8364 29 39.875 29ZM43.5 36.25C43.5 37.2114 43.1181 38.1334 42.4383 38.8133C41.7584 39.4931 40.8364 39.875 39.875 39.875C38.9136 39.875 37.9916 39.4931 37.3117 38.8133C36.6319 38.1334 36.25 37.2114 36.25 36.25C36.25 35.2886 36.6319 34.3666 37.3117 33.6867C37.9916 33.0069 38.9136 32.625 39.875 32.625C40.8364 32.625 41.7584 33.0069 42.4383 33.6867C43.1181 34.3666 43.5 35.2886 43.5 36.25ZM39.875 50.75C38.9136 50.75 37.9916 50.3681 37.3117 49.6883C36.6319 49.0084 36.25 48.0864 36.25 47.125C36.25 46.1636 36.6319 45.2416 37.3117 44.5617C37.9916 43.8819 38.9136 43.5 39.875 43.5C40.8364 43.5 41.7584 43.8819 42.4383 44.5617C43.1181 45.2416 43.5 46.1636 43.5 47.125C43.5 48.0864 43.1181 49.0084 42.4383 49.6883C41.7584 50.3681 40.8364 50.75 39.875 50.75Z" fill="white"/>
<path opacity="0.4" d="M18.125 29C17.1636 29 16.2416 28.6181 15.5617 27.9383C14.8819 27.2584 14.5 26.3364 14.5 25.375C14.5 24.4136 14.8819 23.4916 15.5617 22.8117C16.2416 22.1319 17.1636 21.75 18.125 21.75C19.0864 21.75 20.0084 22.1319 20.6883 22.8117C21.3681 23.4916 21.75 24.4136 21.75 25.375C21.75 26.3364 21.3681 27.2584 20.6883 27.9383C20.0084 28.6181 19.0864 29 18.125 29ZM18.125 39.875C17.1636 39.875 16.2416 39.4931 15.5617 38.8133C14.8819 38.1334 14.5 37.2114 14.5 36.25C14.5 35.2886 14.8819 34.3666 15.5617 33.6867C16.2416 33.0069 17.1636 32.625 18.125 32.625C19.0864 32.625 20.0084 33.0069 20.6883 33.6867C21.3681 34.3666 21.75 35.2886 21.75 36.25C21.75 37.2114 21.3681 38.1334 20.6883 38.8133C20.0084 39.4931 19.0864 39.875 18.125 39.875ZM14.5 47.125C14.5 45.1199 16.1199 43.5 18.125 43.5H29C31.0051 43.5 32.625 45.1199 32.625 47.125C32.625 49.1301 31.0051 50.75 29 50.75H18.125C16.1199 50.75 14.5 49.1301 14.5 47.125ZM29 29C28.0386 29 27.1166 28.6181 26.4367 27.9383C25.7569 27.2584 25.375 26.3364 25.375 25.375C25.375 24.4136 25.7569 23.4916 26.4367 22.8117C27.1166 22.1319 28.0386 21.75 29 21.75C29.9614 21.75 30.8834 22.1319 31.5633 22.8117C32.2431 23.4916 32.625 24.4136 32.625 25.375C32.625 26.3364 32.2431 27.2584 31.5633 27.9383C30.8834 28.6181 29.9614 29 29 29ZM32.625 36.25C32.625 37.2114 32.2431 38.1334 31.5633 38.8133C30.8834 39.4931 29.9614 39.875 29 39.875C28.0386 39.875 27.1166 39.4931 26.4367 38.8133C25.7569 38.1334 25.375 37.2114 25.375 36.25C25.375 35.2886 25.7569 34.3666 26.4367 33.6867C27.1166 33.0069 28.0386 32.625 29 32.625C29.9614 32.625 30.8834 33.0069 31.5633 33.6867C32.2431 34.3666 32.625 35.2886 32.625 36.25ZM39.875 29C38.9136 29 37.9916 28.6181 37.3117 27.9383C36.6319 27.2584 36.25 26.3364 36.25 25.375C36.25 24.4136 36.6319 23.4916 37.3117 22.8117C37.9916 22.1319 38.9136 21.75 39.875 21.75C40.8364 21.75 41.7584 22.1319 42.4383 22.8117C43.1181 23.4916 43.5 24.4136 43.5 25.375C43.5 26.3364 43.1181 27.2584 42.4383 27.9383C41.7584 28.6181 40.8364 29 39.875 29ZM43.5 36.25C43.5 37.2114 43.1181 38.1334 42.4383 38.8133C41.7584 39.4931 40.8364 39.875 39.875 39.875C38.9136 39.875 37.9916 39.4931 37.3117 38.8133C36.6319 38.1334 36.25 37.2114 36.25 36.25C36.25 35.2886 36.6319 34.3666 37.3117 33.6867C37.9916 33.0069 38.9136 32.625 39.875 32.625C40.8364 32.625 41.7584 33.0069 42.4383 33.6867C43.1181 34.3666 43.5 35.2886 43.5 36.25ZM39.875 50.75C38.9136 50.75 37.9916 50.3681 37.3117 49.6883C36.6319 49.0084 36.25 48.0864 36.25 47.125C36.25 46.1636 36.6319 45.2416 37.3117 44.5617C37.9916 43.8819 38.9136 43.5 39.875 43.5C40.8364 43.5 41.7584 43.8819 42.4383 44.5617C43.1181 45.2416 43.5 46.1636 43.5 47.125C43.5 48.0864 43.1181 49.0084 42.4383 49.6883C41.7584 50.3681 40.8364 50.75 39.875 50.75Z" fill="white"/>
</svg>
