<svg width="62" height="62" viewBox="0 0 62 62" fill="none" xmlns="http://www.w3.org/2000/svg">
<g clip-path="url(#clip0_3_88)">
<path d="M12.5938 26.1562C12.5938 24.5457 13.8895 23.25 15.5 23.25C17.1105 23.25 18.4062 24.5457 18.4062 26.1562V33.9062C18.4062 35.5168 17.1105 36.8125 15.5 36.8125C13.8895 36.8125 12.5938 35.5168 12.5938 33.9062V26.1562ZM22.2812 14.5312C22.2812 12.9207 23.577 11.625 25.1875 11.625C26.798 11.625 28.0937 12.9207 28.0937 14.5312V33.9062C28.0937 35.5168 26.798 36.8125 25.1875 36.8125C23.577 36.8125 22.2812 35.5168 22.2812 33.9062V14.5312ZM31.9687 22.2812C31.9687 20.6707 33.2645 19.375 34.875 19.375C36.4855 19.375 37.7812 20.6707 37.7812 22.2812V33.9062C37.7812 35.5168 36.4855 36.8125 34.875 36.8125C33.2645 36.8125 31.9687 35.5168 31.9687 33.9062V22.2812ZM55.3883 60.8617L40.0457 45.5312C42.1406 43.9934 43.9934 42.1406 45.5312 40.0457L60.8617 55.3883C62.3754 56.902 62.3754 59.3602 60.8617 60.8738C59.348 62.3875 56.8898 62.3875 55.3762 60.8738L55.3883 60.8617Z" fill="#165585"/>
<path opacity="0.4" d="M25.1875 50.375C31.8676 50.375 38.2742 47.7213 42.9978 42.9978C47.7213 38.2742 50.375 31.8676 50.375 25.1875C50.375 18.5074 47.7213 12.1008 42.9978 7.37725C38.2742 2.65368 31.8676 0 25.1875 0C18.5074 0 12.1008 2.65368 7.37725 7.37725C2.65368 12.1008 0 18.5074 0 25.1875C0 31.8676 2.65368 38.2742 7.37725 42.9978C12.1008 47.7213 18.5074 50.375 25.1875 50.375ZM12.5938 26.1562C12.5938 24.5457 13.8895 23.25 15.5 23.25C17.1105 23.25 18.4062 24.5457 18.4062 26.1562V33.9062C18.4062 35.5168 17.1105 36.8125 15.5 36.8125C13.8895 36.8125 12.5938 35.5168 12.5938 33.9062V26.1562ZM22.2812 14.5312C22.2812 12.9207 23.577 11.625 25.1875 11.625C26.798 11.625 28.0938 12.9207 28.0938 14.5312V33.9062C28.0938 35.5168 26.798 36.8125 25.1875 36.8125C23.577 36.8125 22.2812 35.5168 22.2812 33.9062V14.5312ZM31.9688 22.2812C31.9688 20.6707 33.2645 19.375 34.875 19.375C36.4855 19.375 37.7812 20.6707 37.7812 22.2812V33.9062C37.7812 35.5168 36.4855 36.8125 34.875 36.8125C33.2645 36.8125 31.9688 35.5168 31.9688 33.9062V22.2812Z" fill="#165585"/>
</g>
<defs>
<clipPath id="clip0_3_88">
<rect width="62" height="62" fill="white"/>
</clipPath>
</defs>
</svg>
