<svg width="44" height="56" viewBox="0 0 44 56" fill="none" xmlns="http://www.w3.org/2000/svg">
<path d="M0 4.24429V51.3977C0 51.6528 0.0882411 51.908 0.333449 52.0748L4.55106 55.4506C4.88455 55.7058 5.30627 55.7058 5.56129 55.4506L9.26885 52.4968L12.9764 55.4506C13.3098 55.7058 13.7316 55.7058 13.9866 55.4506L17.6941 52.4968L21.4017 55.4506C21.7352 55.7058 22.1569 55.7058 22.5002 55.4506L26.2077 52.4968L29.9153 55.4506C30.2488 55.7058 30.6705 55.7058 31.0138 55.4506L34.7213 52.4968L38.4289 55.4506C38.5956 55.5389 38.7624 55.6175 38.9389 55.6175C39.1155 55.6175 39.2724 55.5291 39.4489 55.4506L43.6666 52.0748C43.8333 51.908 44 51.6528 44 51.3977V4.24429C44 3.98915 43.9117 3.73399 43.6567 3.56717L39.4392 0.191361C39.1057 -0.0637871 38.6839 -0.0637871 38.3406 0.191361L34.6331 3.14519L30.9255 0.191361C30.592 -0.0637871 30.1703 -0.0637871 29.9153 0.191361L26.2077 3.14519L22.5002 0.191361C22.1668 -0.0637871 21.745 -0.0637871 21.49 0.191361L17.7824 3.14519L14.0749 0.191361C13.7414 -0.0637871 13.3197 -0.0637871 13.0647 0.191361L9.35709 3.14519L5.64959 0.191361C5.31611 -0.0637871 4.89432 -0.0637871 4.6393 0.191361L0.42175 3.56717C0.0882675 3.73399 0 3.98915 0 4.24429ZM1.687 4.66627L5.06105 1.96758L8.76862 4.92142C9.1021 5.17657 9.52383 5.17657 9.77884 4.92142L13.4864 1.96758L17.1939 4.92142C17.5274 5.17657 17.9491 5.17657 18.2924 4.92142L22 1.96758L25.7076 4.92142C26.041 5.17657 26.4628 5.17657 26.7178 4.92142L30.4254 1.96758L34.2996 4.92142C34.6331 5.17657 35.0549 5.17657 35.3099 4.92142L39.0174 1.96758L42.3914 4.66627V51.064L39.0174 53.7627L35.3099 50.8089C34.9764 50.5537 34.5546 50.5537 34.2113 50.8089L30.5038 53.7627L26.7963 50.8089C26.4628 50.5537 26.041 50.5537 25.6977 50.8089L21.9902 53.7627L18.2827 50.8089C17.9492 50.5537 17.5274 50.5537 17.1842 50.8089L13.4766 53.7627L9.84751 50.8089C9.51403 50.5537 9.0923 50.5537 8.83728 50.8089L5.12972 53.7627L1.75566 51.064V4.66627H1.66742H1.687Z" fill="#165585"/>
<path d="M6.91479 11.2411H36.5064C37.0164 11.2411 37.35 10.9075 37.35 10.3972C37.35 9.88688 37.0164 9.55322 36.5064 9.55322H6.91479C6.40476 9.55322 6.07129 9.88688 6.07129 10.3972C6.07129 10.9075 6.40476 11.2411 6.91479 11.2411Z" fill="#165585"/>
<path d="M6.91479 17.9927H36.5064C37.0164 17.9927 37.35 17.6591 37.35 17.1488C37.35 16.6385 37.0164 16.3048 36.5064 16.3048H6.91479C6.40476 16.3048 6.07129 16.6385 6.07129 17.1488C6.07129 17.6591 6.40476 17.9927 6.91479 17.9927Z" fill="#165585"/>
<path d="M6.91479 24.7444H36.5064C37.0164 24.7444 37.35 24.4108 37.35 23.9005C37.35 23.3902 37.0164 23.0565 36.5064 23.0565H6.91479C6.40476 23.0565 6.07129 23.3902 6.07129 23.9005C6.07129 24.4108 6.40476 24.7444 6.91479 24.7444Z" fill="#165585"/>
<path d="M6.91479 31.4864H36.5064C37.0164 31.4864 37.35 31.1527 37.35 30.6424C37.35 30.1321 37.0164 29.7985 36.5064 29.7985H6.91479C6.40476 29.7985 6.07129 30.1321 6.07129 30.6424C6.07129 31.1527 6.40476 31.4864 6.91479 31.4864Z" fill="#165585"/>
<path d="M36.5067 40.014H21.6667C21.1567 40.014 20.8232 40.3477 20.8232 40.858C20.8232 41.3683 21.1567 41.7019 21.6667 41.7019H36.4185C36.9285 41.7019 37.262 41.3683 37.262 40.858C37.262 40.3477 36.9285 40.014 36.5067 40.014Z" fill="#165585"/>
<path d="M13.9867 42.7127C13.9867 43.2917 13.7709 43.7725 13.3393 44.1356C12.9078 44.4987 12.3095 44.7342 11.5445 44.8324V46.3829H11.0148V44.8618C10.6126 44.8618 10.1713 44.8029 9.70049 44.7146C9.22969 44.6263 8.84714 44.5183 8.57251 44.381V43.7038C8.89618 43.8608 9.28853 43.9982 9.74952 44.1062C10.2105 44.2141 10.6322 44.273 11.0148 44.273V40.9365C10.3772 40.7402 9.90643 40.5537 9.60237 40.3574C9.29831 40.1612 9.07273 39.9355 8.93541 39.6803C8.7981 39.4154 8.72942 39.1013 8.72942 38.7186C8.72942 38.1789 8.9354 37.7176 9.34734 37.3545C9.75929 36.9816 10.3184 36.7559 11.0148 36.6676V35.4115H11.5445V36.6578C12.4076 36.6971 13.1726 36.8541 13.8494 37.1288L13.6336 37.7177C13.0156 37.4429 12.3193 37.2859 11.5445 37.2466V40.436C12.4762 40.7205 13.1137 41.0346 13.4668 41.3781C13.8199 41.7215 13.9965 42.1631 13.9965 42.7127H13.9867ZM9.43564 38.7186C9.43564 39.0915 9.56316 39.4056 9.80836 39.6411C10.0536 39.8864 10.4557 40.0827 11.0049 40.2495V37.276C10.4851 37.3447 10.0928 37.5116 9.828 37.7765C9.56318 38.0415 9.43564 38.3555 9.43564 38.7186ZM13.2609 42.6832C13.2609 42.3103 13.1235 42.0061 12.8489 41.7608C12.5743 41.5154 12.1329 41.3094 11.5346 41.1327V44.2239C12.0643 44.1651 12.486 43.9982 12.7999 43.7333C13.1039 43.4585 13.2609 43.115 13.2609 42.6832Z" fill="#165585"/>
<path d="M11.7897 46.6184H10.7696V45.0875C10.4264 45.0678 10.0438 45.0188 9.65149 44.9403C9.15127 44.8421 8.75897 44.7342 8.46472 44.587L8.32739 44.5183V43.3014L8.68048 43.4682C8.99434 43.6154 9.36708 43.743 9.80845 43.851C10.1517 43.9295 10.4754 43.9786 10.7795 43.9982V41.1032C10.2106 40.9168 9.77901 40.7401 9.48476 40.5537C9.14147 40.3378 8.88644 40.0826 8.72951 39.7784C8.57257 39.484 8.49412 39.1209 8.49412 38.7088C8.49412 38.1003 8.72955 37.5704 9.20035 37.1582C9.60249 36.7951 10.1419 36.5596 10.7893 36.4419V35.1465H11.8093V36.4026C12.6038 36.4615 13.3198 36.6185 13.9573 36.8835L14.1732 36.9718L13.7906 38.0316L13.5552 37.9237C13.0354 37.698 12.4567 37.5508 11.8093 37.4919V40.2396C12.6921 40.5242 13.3002 40.8383 13.6533 41.1915C14.0554 41.5841 14.2516 42.0846 14.2516 42.7028C14.2516 43.3603 14.0064 43.9 13.516 44.3122C13.0942 44.6753 12.5155 44.9108 11.8093 45.0286V46.6085L11.7897 46.6184ZM11.2601 46.1277H11.2993V44.6066L11.5151 44.5772C12.2311 44.4888 12.7902 44.273 13.1825 43.9393C13.565 43.6155 13.7416 43.2131 13.7416 42.7028C13.7416 42.1925 13.5944 41.8392 13.2904 41.5448C12.9667 41.2308 12.3586 40.9364 11.4661 40.6616L11.2895 40.6126V36.9816L11.5445 37.0012C12.2409 37.0405 12.8883 37.1681 13.4767 37.3938L13.5258 37.2662C12.9373 37.0503 12.2605 36.9325 11.5249 36.8933H11.2895V35.647H11.2502V36.8737L11.0345 36.9031C10.3871 36.9816 9.8673 37.1975 9.49458 37.5311C9.13168 37.855 8.95514 38.2377 8.95514 38.7186C8.95514 39.0522 9.01398 39.3368 9.13168 39.5625C9.24938 39.7882 9.44551 39.9845 9.71034 40.1513C9.99478 40.328 10.446 40.5144 11.0639 40.7009L11.2405 40.7499V44.5085H10.9953C10.5931 44.5085 10.1419 44.4496 9.67112 44.3417C9.34745 44.2631 9.063 44.1748 8.79817 44.0767V44.2141C9.04338 44.3122 9.35726 44.3907 9.72997 44.4692C10.191 44.5575 10.6225 44.6066 11.005 44.6164H11.2502V46.1375L11.2601 46.1277ZM11.2993 44.4987V40.8088L11.6131 40.8971C12.2507 41.0836 12.7117 41.3093 13.0158 41.5743C13.3493 41.8687 13.516 42.2318 13.516 42.6832C13.516 43.1837 13.3296 43.5958 12.9667 43.9197C12.6234 44.2239 12.1526 44.4103 11.5641 44.4692L11.2895 44.4987H11.2993ZM11.7897 41.4761V43.9491C12.1428 43.8804 12.4273 43.743 12.6431 43.5566C12.8981 43.3309 13.0255 43.0463 13.0255 42.693C13.0255 42.3888 12.9177 42.1533 12.6921 41.957C12.4959 41.7803 12.1919 41.6233 11.7897 41.486V41.4761ZM11.2601 40.5831L10.9462 40.485C10.3479 40.3083 9.92617 40.0925 9.64173 39.8177C9.34748 39.5331 9.19053 39.1602 9.19053 38.7186C9.19053 38.277 9.34744 37.9139 9.66131 37.6097C9.96536 37.3054 10.4068 37.119 10.9756 37.0405L11.2502 37.0012V40.5831H11.2601ZM10.7696 37.5704C10.446 37.6489 10.191 37.7765 10.0145 37.9531C9.79867 38.169 9.69076 38.4242 9.69076 38.7186C9.69076 39.013 9.78883 39.2681 9.985 39.4644C10.1517 39.6312 10.4166 39.7784 10.7696 39.906V37.5704Z" fill="#165585"/>
</svg>
