<svg width="66" height="66" viewBox="0 0 66 66" fill="none" xmlns="http://www.w3.org/2000/svg">
<path d="M39.6001 11.55C39.6001 8.81716 41.8173 6.59998 44.5501 6.59998H61.0501C63.7829 6.59998 66.0001 8.81716 66.0001 11.55V24.75C66.0001 27.4828 63.7829 29.7 61.0501 29.7H56.1001L47.5201 36.135C47.2726 36.3206 46.9323 36.3515 46.6538 36.2175C46.3754 36.0834 46.2001 35.7947 46.2001 35.475V29.7H44.5501C41.8173 29.7 39.6001 27.4828 39.6001 24.75V11.55Z" fill="#165585"/>
<path opacity="0.4" d="M23.1 33C26.6009 33 29.9583 31.6093 32.4338 29.1338C34.9093 26.6583 36.3 23.3008 36.3 19.8C36.3 16.2991 34.9093 12.9416 32.4338 10.4662C29.9583 7.99069 26.6009 6.59998 23.1 6.59998C19.5991 6.59998 16.2417 7.99069 13.7662 10.4662C11.2907 12.9416 9.9 16.2991 9.9 19.8C9.9 23.3008 11.2907 26.6583 13.7662 29.1338C16.2417 31.6093 19.5991 33 23.1 33ZM13.2 38.6925C5.56875 40.9303 0 47.984 0 56.3372C0 58.0284 1.37156 59.4 3.06281 59.4H43.1372C44.8284 59.4 46.2 58.0284 46.2 56.3372C46.2 47.984 40.6312 40.9303 33 38.6925V43.9312C35.8462 44.6634 37.95 47.2519 37.95 50.325V54.45C37.95 55.3575 37.2075 56.1 36.3 56.1H34.65C33.7425 56.1 33 55.3575 33 54.45C33 53.5425 33.7425 52.8 34.65 52.8V50.325C34.65 48.4997 33.1753 47.025 31.35 47.025C29.5247 47.025 28.05 48.4997 28.05 50.325V52.8C28.9575 52.8 29.7 53.5425 29.7 54.45C29.7 55.3575 28.9575 56.1 28.05 56.1H26.4C25.4925 56.1 24.75 55.3575 24.75 54.45V50.325C24.75 47.2519 26.8537 44.6634 29.7 43.9312V38.0428C29.0812 37.9809 28.4522 37.95 27.8128 37.95H18.3872C17.7478 37.95 17.1187 37.9809 16.5 38.0428V44.7872C18.8822 45.4987 20.625 47.7056 20.625 50.325C20.625 53.5115 18.0366 56.1 14.85 56.1C11.6634 56.1 9.075 53.5115 9.075 50.325C9.075 47.7056 10.8178 45.4987 13.2 44.7872V38.6925ZM14.85 52.8C15.5064 52.8 16.1359 52.5392 16.6001 52.0751C17.0642 51.6109 17.325 50.9814 17.325 50.325C17.325 49.6686 17.0642 49.039 16.6001 48.5749C16.1359 48.1107 15.5064 47.85 14.85 47.85C14.1936 47.85 13.5641 48.1107 13.0999 48.5749C12.6358 49.039 12.375 49.6686 12.375 50.325C12.375 50.9814 12.6358 51.6109 13.0999 52.0751C13.5641 52.5392 14.1936 52.8 14.85 52.8Z" fill="#165585"/>
</svg>
