<svg width="65" height="65" viewBox="0 0 65 65" fill="none" xmlns="http://www.w3.org/2000/svg">
<path d="M12.4807 39.1978H10.6856V32.2097H8.39062V30.7163H14.7757V32.2097H12.4807V39.1978Z" fill="#165585"/>
<path d="M20.0473 39.1978L19.7064 38.32H19.6609C19.3655 38.6962 19.0588 38.9584 18.7407 39.1066C18.4226 39.2548 18.0137 39.3232 17.5138 39.3232C16.8889 39.3232 16.4003 39.1408 16.0481 38.7874C15.6959 38.434 15.5142 37.921 15.5142 37.2712C15.5142 36.6214 15.7528 36.0742 16.2299 35.7436C16.7071 35.413 17.4341 35.2306 18.3998 35.1964L19.5246 35.1622V34.8772C19.5246 34.216 19.1951 33.8854 18.5134 33.8854C17.9908 33.8854 17.3887 34.045 16.6956 34.3528L16.1162 33.1559C16.866 32.7683 17.6841 32.5745 18.593 32.5745C19.5019 32.5745 20.1268 32.7683 20.5926 33.1445C21.0584 33.5207 21.2856 34.1021 21.2856 34.8772V39.1978H20.0587H20.0473ZM19.5246 36.1882L18.8429 36.211C18.3317 36.2224 17.9454 36.3136 17.6954 36.4846C17.4455 36.6556 17.3206 36.9178 17.3206 37.2598C17.3206 37.7614 17.6046 38.0122 18.1727 38.0122C18.5817 38.0122 18.9111 37.8982 19.1497 37.6588C19.3883 37.4194 19.5132 37.1116 19.5132 36.724V36.1882H19.5246Z" fill="#165585"/>
<path d="M24.4213 35.8918L22.3422 32.7227H24.3417L25.6029 34.786L26.864 32.7227H28.8636L26.7617 35.8918L28.9658 39.2092H26.9548L25.5915 36.9862L24.2281 39.2092H22.2285L24.4213 35.8918Z" fill="#165585"/>
<path d="M53.881 33.1787C53.472 33.1787 53.188 33.4523 53.188 33.8741V61.2908C53.188 62.123 52.495 62.807 51.677 62.807H3.82331C2.99394 62.807 2.31231 62.1116 2.31231 61.2908V13.2745C2.31231 12.4423 3.0053 11.7583 3.82331 11.7583H31.6471C32.0561 11.7583 32.3401 11.4847 32.3401 11.0629C32.3401 10.6412 32.0674 10.3676 31.6471 10.3676H3.82331C2.31226 10.3676 0.9375 11.6101 0.9375 13.2631V61.2794C0.9375 62.7956 2.17592 64.175 3.82331 64.175H51.677C53.188 64.175 54.5628 62.9324 54.5628 61.2794V33.8627C54.5628 33.4523 54.2901 33.1673 53.8698 33.1673L53.881 33.1787Z" fill="#165585"/>
<path d="M51.677 64.7563H3.82326C1.91456 64.7563 0.369385 63.206 0.369385 61.2908V13.2745C0.369385 11.3593 1.91456 9.80896 3.82326 9.80896H31.647C32.3741 9.80896 32.9081 10.3334 32.9081 11.0629C32.9081 11.7925 32.3855 12.3283 31.647 12.3283H3.82326C3.312 12.3283 2.88032 12.7615 2.88032 13.2745V61.2908C2.88032 61.8038 3.312 62.237 3.82326 62.237H51.677C52.1882 62.237 52.6199 61.8038 52.6199 61.2908V33.8741C52.6199 33.1445 53.1426 32.6087 53.8697 32.6087C54.5969 32.6087 55.1308 33.1331 55.1308 33.8741V61.2908C55.1308 63.206 53.5856 64.7563 51.677 64.7563ZM31.647 10.9375H3.82326C2.53943 10.9375 1.50551 11.9863 1.50551 13.2631V61.2794C1.50551 62.5676 2.55079 63.605 3.82326 63.605H51.677C52.9608 63.605 53.9947 62.5562 53.9947 61.2794V33.8627C53.9947 33.6689 53.756 33.6689 53.756 33.8627V61.2794C53.756 62.4308 52.8244 63.3656 51.677 63.3656H3.82326C2.67577 63.3656 1.74419 62.4308 1.74419 61.2794V13.2631C1.74419 12.1117 2.67577 11.1769 3.82326 11.1769H31.647C31.7493 11.1769 31.772 11.1541 31.772 11.0516C31.772 10.949 31.7493 10.9262 31.647 10.9262V10.9375Z" fill="#165585"/>
<path d="M53.188 10.9261L39.4408 24.72C39.1682 24.9936 39.1682 25.4154 39.4408 25.689C39.5772 25.8258 39.7135 25.8258 39.9862 25.8258C40.2588 25.8258 40.3951 25.8258 40.5315 25.689L54.2787 11.8951C54.5514 11.6215 54.5514 11.1997 54.2787 10.9261C54.0061 10.6526 53.4492 10.7894 53.1766 10.9261H53.188Z" fill="#165585"/>
<path d="M39.9862 26.1108C39.6908 26.1108 39.4524 26.1108 39.2365 25.8942C38.8502 25.5066 38.8502 24.9138 39.2365 24.5262L53.0631 10.6754C53.3812 10.5158 54.0856 10.322 54.4946 10.7324C54.8809 11.12 54.8809 11.7128 54.4946 12.1004L40.7475 25.8942C40.5316 26.1108 40.293 26.1108 39.9976 26.1108H39.9862ZM53.3585 11.1656L39.6455 24.9252C39.4751 25.0962 39.4751 25.3242 39.6455 25.4838C39.6909 25.5294 39.7249 25.5408 39.9976 25.5408C40.2703 25.5408 40.3044 25.5408 40.3499 25.4838L54.097 11.69C54.2674 11.519 54.2674 11.291 54.097 11.1314C53.972 11.006 53.6198 11.0516 53.3698 11.1656H53.3585Z" fill="#165585"/>
<path d="M8.15186 53.972C8.15186 54.3824 8.42465 54.6674 8.84502 54.6674H46.6552C47.0642 54.6674 47.3483 54.3938 47.3483 53.972C47.3483 53.5502 47.0756 53.2766 46.6552 53.2766H8.84502C8.43601 53.2766 8.15186 53.687 8.15186 53.972Z" fill="#165585"/>
<path d="M46.6553 55.226H8.84507C8.11794 55.226 7.59521 54.7016 7.59521 53.9721C7.59521 53.3793 8.12931 52.7067 8.84507 52.7067H46.6553C47.3824 52.7067 47.9164 53.2311 47.9164 53.9721C47.9164 54.713 47.3938 55.226 46.6553 55.226ZM8.71997 53.9721C8.71997 54.0633 8.7428 54.086 8.83369 54.086H46.6439C46.7462 54.086 46.769 54.0633 46.769 53.9721C46.769 53.8809 46.7462 53.8467 46.6439 53.8467H8.83369C8.83369 53.8467 8.73133 53.9265 8.71997 53.9721Z" fill="#165585"/>
<path d="M8.15186 45.4677C8.15186 45.8781 8.42465 46.1631 8.84502 46.1631H30.1586C30.5676 46.1631 30.8518 45.8895 30.8518 45.4677C30.8518 45.0459 30.579 44.7723 30.1586 44.7723H8.84502C8.43601 44.7723 8.15186 45.0459 8.15186 45.4677Z" fill="#165585"/>
<path d="M30.1587 46.7332H8.84507C8.11794 46.7332 7.59521 46.2088 7.59521 45.4678C7.59521 44.7268 8.11794 44.2024 8.84507 44.2024H30.1587C30.8858 44.2024 31.4199 44.7268 31.4199 45.4678C31.4199 46.2088 30.8972 46.7332 30.1587 46.7332ZM8.84507 45.3538C8.74281 45.3538 8.73134 45.3766 8.73134 45.4792C8.73134 45.5818 8.75418 45.6046 8.84507 45.6046H30.1587C30.2609 45.6046 30.2838 45.5818 30.2838 45.4792C30.2838 45.3766 30.2609 45.3538 30.1587 45.3538H8.84507Z" fill="#165585"/>
<path d="M46.7235 0.848633C37.1005 0.848633 29.2612 8.71455 29.2612 18.3702C29.2612 28.0259 37.1005 35.8919 46.7235 35.8919C56.3465 35.8919 64.1858 28.0259 64.1858 18.3702C64.1858 8.71455 56.3465 0.848633 46.7235 0.848633ZM46.7235 34.5125C37.9185 34.5125 30.6359 27.3419 30.6359 18.3702C30.6359 9.39854 37.7822 2.22802 46.7235 2.22802C55.6648 2.22802 62.8111 9.39854 62.8111 18.3702C62.8111 27.3419 55.6648 34.5125 46.7235 34.5125Z" fill="#165585"/>
<path d="M46.7235 36.4619C36.7823 36.4619 28.6931 28.3452 28.6931 18.3703C28.6931 8.3954 36.7823 0.278687 46.7235 0.278687C56.6646 0.278687 64.7538 8.3954 64.7538 18.3703C64.7538 28.3452 56.6646 36.4619 46.7235 36.4619ZM46.7235 1.41867C37.4072 1.41867 29.8292 9.02239 29.8292 18.3703C29.8292 27.7182 37.4072 35.3219 46.7235 35.3219C56.0397 35.3219 63.6177 27.7182 63.6177 18.3703C63.6177 9.02239 56.0397 1.41867 46.7235 1.41867ZM46.7235 35.0825C37.5435 35.0825 30.0678 27.5814 30.0678 18.3703C30.0678 9.15919 37.5435 1.65807 46.7235 1.65807C55.9034 1.65807 63.3791 9.15919 63.3791 18.3703C63.3791 22.8618 61.6522 27.0684 58.5165 30.2034C55.3807 33.3497 51.1884 35.0825 46.7235 35.0825ZM46.7235 2.79806C38.1684 2.79806 31.2039 9.78618 31.2039 18.3703C31.2039 26.9544 38.1684 33.9425 46.7235 33.9425C50.893 33.9425 54.8012 32.3237 57.7211 29.4054C60.6409 26.4756 62.243 22.554 62.243 18.3703C62.243 9.78618 55.2785 2.79806 46.7235 2.79806Z" fill="#165585"/>
<path d="M51.1318 20.0233C49.757 19.8865 48.5186 20.9923 48.3823 22.3717C48.2459 23.7511 49.348 24.9937 50.7228 25.1305H50.8591C52.2338 25.1305 53.3358 24.1615 53.3358 22.7821C53.6084 21.2659 52.5065 20.0233 51.1318 20.0233ZM50.8591 23.6143C50.1661 23.6143 49.7569 23.0671 49.7569 22.3717C49.7569 21.8245 50.3024 21.2659 50.8591 21.2659H50.9954C51.6885 21.2659 52.0974 21.8131 52.0974 22.5085C51.9611 23.2039 51.4158 23.7511 50.8591 23.6143Z" fill="#165585"/>
<path d="M42.4629 16.7174H42.5992C43.974 16.7174 45.0759 15.7484 45.0759 14.369C45.2123 12.9896 44.1103 11.747 42.7356 11.6102C41.3608 11.4734 40.1224 12.5792 39.9861 13.9586C39.9861 15.4748 41.0882 16.7174 42.4629 16.7174ZM42.5992 12.9896C42.6901 12.9896 42.6901 12.9896 42.5992 12.9896C43.2923 12.9896 43.8376 13.5368 43.8376 14.2322C43.8376 14.9276 43.1446 15.338 42.5992 15.338C41.9062 15.338 41.4972 14.7908 41.4972 14.0954C41.4972 13.5482 42.0425 12.9896 42.5992 12.9896Z" fill="#165585"/>
</svg>
