<svg width="164" height="31" viewBox="0 0 164 31" fill="none" xmlns="http://www.w3.org/2000/svg">
<path d="M41.453 11.3447L30.0671 0.270418C29.6699 -0.0901393 29.0874 -0.0901393 28.7167 0.270418L26.466 2.45952L35.6012 11.3447C35.9719 11.7052 35.9719 12.2976 35.6012 12.6581L26.2012 21.8008L28.4519 23.9899C28.8491 24.3505 29.4316 24.3505 29.8023 23.9899L41.4265 12.6839C41.8237 12.2976 41.8237 11.731 41.453 11.3447Z" fill="#001B38"/>
<path d="M21.5776 1.07803L20.8146 0.272755C20.4455 -0.0909183 19.904 -0.0909183 19.5594 0.272755L17.4674 2.48077L18.8457 3.93547L21.553 6.7929L24.2603 3.93547L21.5776 1.07803Z" fill="#001B38"/>
<path d="M21.1495 18.438L18.0665 20.8872L16.4971 22.1341L18.8793 24.0267C19.2997 24.3384 19.9163 24.3384 20.3087 24.0267L21.1775 23.3364L24.2604 20.8872L21.1495 18.438Z" fill="#001B38"/>
<path d="M26.5956 10.8111C26.9842 11.2212 26.9842 11.8225 26.5956 12.2052L21.3491 17.3717L24.4026 20.3786L32.7026 12.2052C33.0912 11.8225 33.0912 11.1938 32.7026 10.8111L24.6802 2.91113L21.599 5.91805L26.5956 10.8111Z" fill="#001B38"/>
<path d="M8.81982 11.6022L16.497 3.90174L13.6726 1.06879L12.851 0.270418C12.4659 -0.0901393 11.901 -0.0901393 11.5415 0.270418L0.269601 11.6022C-0.0898671 11.9628 -0.0898671 12.5551 0.269601 12.9157L11.3104 23.9899C11.6956 24.3505 12.2604 24.3505 12.6199 23.9899L13.4416 23.1916L16.266 20.3586L8.84549 12.9157C8.48603 12.5551 8.48603 11.9885 8.81982 11.6022Z" fill="#001B38"/>
<path d="M16.8618 11.0827L20.3787 7.46309L17.448 4.44673L15.956 2.91113L8.04306 11.1101C7.67006 11.494 7.67006 12.1247 8.04306 12.5086L15.6895 20.3786L17.1815 18.843L20.1123 15.8266L16.8618 12.4812C16.4888 12.1247 16.4888 11.494 16.8618 11.0827Z" fill="#001B38"/>
<path d="M16.7386 13.0037L19.7604 16.4972L23.0299 12.7173C23.3767 12.3164 23.3767 11.6578 23.0299 11.2569L20.0081 7.76343L16.7386 11.5433C16.4166 11.9728 16.4166 12.6028 16.7386 13.0037Z" fill="#001B38"/>
<path d="M49.5428 9.07036C49.5687 7.79422 49.8273 6.54412 50.2927 5.37215C50.7323 4.30436 51.3788 3.28865 52.2062 2.50734C53.1113 1.67394 54.1715 1.04889 55.3351 0.658235C56.7315 0.189448 58.2054 -0.044945 59.6794 0.00714246C61.3343 -0.044945 62.9634 0.189451 64.5149 0.762413C65.601 1.17911 66.6612 1.77812 67.5404 2.58547C68.2385 3.18448 68.7557 3.93975 69.0919 4.77315C69.3763 5.37215 69.5315 6.02324 69.609 6.67434C69.6349 6.93477 69.5573 7.16917 69.3505 7.32543C69.1695 7.48169 68.9367 7.58587 68.704 7.58587H65.9888C65.782 7.58587 65.5751 7.53378 65.42 7.40356C65.2907 7.29938 65.1614 7.14312 65.1097 7.0129C65.0579 6.93477 64.9545 6.72642 64.7476 6.43994C64.4891 6.07533 64.2046 5.73676 63.8426 5.50237C63.3513 5.13776 62.8082 4.85128 62.2135 4.61688C61.4119 4.3304 60.5327 4.20018 59.6794 4.22623C58.2313 4.1481 56.7832 4.64292 55.6454 5.5805C54.6369 6.51807 54.0422 7.8463 54.0163 9.25266C53.9646 10.1121 53.9646 11.0236 53.9646 12.0133C53.9646 12.9769 53.9646 13.9145 54.0163 14.7739C54.0681 16.6491 54.6111 18.0034 55.6454 18.8368C56.8091 19.7222 58.2313 20.165 59.6535 20.1129C60.4293 20.1129 61.1792 20.0348 61.9291 19.8264C62.5755 19.6702 63.1961 19.3576 63.7133 18.9409C64.2305 18.5242 64.6442 17.9773 64.9028 17.3262C65.2131 16.5449 65.3424 15.7115 65.3165 14.9042V14.6177H61.2309C60.9723 14.6177 60.7654 14.5395 60.6103 14.3312C60.4551 14.1749 60.3258 13.9405 60.3258 13.7061V11.3101C60.3258 10.8153 60.7396 10.3986 61.2309 10.3986H68.9626C69.4539 10.3986 69.8676 10.8153 69.8676 11.3101V15.0083C69.8935 16.2845 69.6866 17.5606 69.247 18.7326C68.8333 19.8264 68.1868 20.8421 67.3335 21.6495C66.4284 22.5089 65.3424 23.16 64.1529 23.5767C61.2826 24.4882 58.1796 24.4882 55.2575 23.5767C54.0939 23.1861 53.0337 22.561 52.1545 21.7276C51.327 20.8942 50.6806 19.9045 50.2668 18.8107C49.8273 17.6127 49.5687 16.3626 49.5428 15.0865C49.5428 14.6698 49.5169 14.1749 49.4911 13.6801C49.4911 13.1592 49.4911 12.6383 49.4911 12.0654C49.4911 11.4924 49.4911 10.9976 49.4911 10.5028C49.4911 9.95585 49.5169 9.5131 49.5428 9.07036Z" fill="#001B38"/>
<path d="M80.5171 9.9442C79.913 9.9178 79.3364 10.0234 78.7324 10.2347C78.2656 10.3931 77.8538 10.6572 77.4968 11.0005C77.1673 11.291 76.9202 11.6343 76.728 12.0305C76.5633 12.3738 76.426 12.7435 76.3985 13.0868H84.4434C84.3885 12.7171 84.3061 12.3474 84.1688 12.0305C84.0316 11.6343 83.8119 11.291 83.5373 11.0005C83.2078 10.6572 82.796 10.4195 82.3841 10.2347C81.7801 10.0234 81.1486 9.9178 80.5171 9.9442ZM71.8132 15.0938C71.8132 13.8526 72.0054 12.6643 72.4173 11.4759C72.8017 10.3931 73.3783 9.36321 74.1745 8.51814C74.9433 7.67307 75.9043 7.01287 76.9477 6.56392C78.0734 6.08857 79.309 5.82449 80.5171 5.82449C81.7526 5.79808 82.9607 6.03575 84.0865 6.53751C85.1298 6.98646 86.0908 7.62026 86.8871 8.43892C87.6559 9.25758 88.2599 10.1819 88.6718 11.2118C89.0836 12.2681 89.3033 13.4037 89.2758 14.5393V16.071C89.2758 16.5727 88.8365 16.9952 88.3148 16.9952H76.426C76.426 17.4706 76.5358 17.946 76.7555 18.3685C76.9751 18.7646 77.2772 19.1079 77.6616 19.3456C78.0734 19.6361 78.5127 19.8209 78.9795 19.953C79.4737 20.085 79.9954 20.1378 80.5171 20.1378C81.1211 20.1643 81.7801 20.085 82.3841 19.9266C82.796 19.8209 83.2078 19.6097 83.5373 19.372C83.7295 19.24 83.9492 19.0815 84.1688 18.9759C84.361 18.8967 84.6082 18.8702 84.8278 18.8702H87.6833C87.9579 18.8702 88.205 18.9759 88.3698 19.1607C88.5619 19.3192 88.6718 19.5569 88.6443 19.7945C88.5619 20.2435 88.3698 20.666 88.0952 21.0357C87.6833 21.6167 87.1616 22.1185 86.5576 22.5146C85.7613 23.0428 84.9102 23.4653 84.0041 23.7558C82.8784 24.1255 81.6703 24.284 80.5171 24.2576C79.2815 24.2576 78.0734 24.0463 76.9477 23.5973C75.9043 23.1748 74.9433 22.541 74.1745 21.7224C73.3783 20.8509 72.8017 19.8738 72.4173 18.791C71.978 17.6026 71.7858 16.335 71.8132 15.0938Z" fill="#001B38"/>
<path d="M96.5581 17.1197C96.5332 17.7014 96.7077 18.3083 97.0817 18.7382C97.4307 19.1428 98.0789 19.3451 99.0762 19.3451H101.021C101.495 19.3451 101.893 19.7497 101.893 20.2301V22.4049C101.893 22.8853 101.495 23.2899 101.021 23.2899H98.6025C96.5581 23.2899 95.0373 22.7842 93.9403 21.798C92.8682 20.8117 92.3197 19.2692 92.2948 17.2462V10.1656H90.1507C89.9014 10.1656 89.7019 10.0898 89.5523 9.88748C89.4027 9.73575 89.2781 9.50816 89.2781 9.28057V7.10583C89.2781 6.85296 89.3529 6.65066 89.5523 6.49893C89.7019 6.3472 89.9263 6.22076 90.1507 6.22076H92.2948V0.885068C92.2948 0.404603 92.6937 0 93.1674 0H95.6356C96.1093 0 96.5082 0.404603 96.5082 0.885068V6.22076H100.697C101.17 6.24605 101.519 6.62537 101.544 7.10583V9.28057C101.544 9.76104 101.146 10.1656 100.672 10.1656H96.4833L96.5581 17.1197Z" fill="#001B38"/>
<path d="M119.29 14.6051L115.493 5.13613L111.695 14.6051H119.29ZM117.352 0.00387531C117.67 -0.0217859 117.936 0.0808567 118.175 0.286147C118.387 0.542759 118.573 0.825034 118.679 1.13297L127.098 22.1752C127.124 22.2522 127.124 22.3292 127.124 22.3805C127.124 22.868 126.699 23.2786 126.195 23.2786H123.725C123.38 23.3043 123.008 23.2273 122.769 22.9964C122.61 22.8424 122.477 22.6371 122.397 22.4575L120.91 18.7622H110.049L108.561 22.4575C108.482 22.6628 108.349 22.8424 108.19 22.9964C107.897 23.2016 107.579 23.3299 107.234 23.2786H104.764C104.259 23.2786 103.834 22.868 103.834 22.3805C103.834 22.3035 103.834 22.2265 103.861 22.1752L112.279 1.13297C112.386 0.825034 112.571 0.542759 112.784 0.286147C112.996 0.106518 113.315 -0.0217859 113.607 0.00387531H117.352Z" fill="#001B38"/>
<path d="M140.266 15.8301C140.317 15.2047 140.317 14.5533 140.266 13.954C140.141 12.4949 139.713 11.4266 138.959 10.8012C138.204 10.1498 137.249 9.81108 136.268 9.83714C135.287 9.81108 134.331 10.1498 133.577 10.8012C132.797 11.5308 132.37 12.547 132.32 13.5892C132.269 14.0061 132.244 14.4491 132.269 14.866C132.269 15.309 132.294 15.7259 132.32 16.1428C132.37 17.185 132.823 18.1751 133.577 18.9047C134.331 19.6082 135.287 19.947 136.268 19.9209C137.249 19.947 138.204 19.5822 138.959 18.9568C139.713 18.3054 140.141 17.2632 140.266 15.8301ZM137.249 24.0118C136.645 24.0118 136.016 23.9596 135.438 23.8294C134.96 23.7251 134.482 23.5427 134.03 23.3343C133.678 23.1519 133.326 22.9174 133.024 22.6308C132.772 22.4484 132.546 22.2139 132.32 21.9794V29.1709C132.32 29.666 131.917 30.0829 131.439 30.0829H128.975C128.497 30.0829 128.095 29.666 128.095 29.1709V7.02306C128.095 6.52799 128.497 6.11109 128.975 6.11109H131.465C131.942 6.11109 132.345 6.52799 132.345 7.02306V7.80475C132.546 7.54419 132.772 7.33574 133.049 7.15334C133.376 6.89278 133.728 6.68433 134.08 6.50194C134.533 6.29349 135.01 6.11109 135.488 6.00687C136.067 5.87659 136.695 5.82447 137.299 5.82447C138.305 5.79841 139.336 6.03292 140.266 6.47588C141.121 6.89278 141.901 7.49208 142.504 8.24771C143.133 9.00334 143.636 9.8632 143.963 10.8012C144.315 11.7653 144.516 12.7554 144.567 13.7977C144.592 14.1364 144.592 14.5273 144.592 14.9963C144.592 15.4653 144.592 15.8561 144.567 16.1949C144.516 17.2111 144.315 18.2273 143.963 19.1913C143.611 20.1294 143.133 20.9892 142.504 21.7449C141.901 22.5005 141.121 23.0737 140.266 23.5167C139.286 23.8033 138.28 24.0378 137.249 24.0118Z" fill="#001B38"/>
<path d="M159.493 15.804C159.547 15.1787 159.547 14.5273 159.493 13.928C159.36 12.4688 158.906 11.4005 158.106 10.7752C157.306 10.1238 156.293 9.78502 155.253 9.81108C154.213 9.78502 153.2 10.1238 152.4 10.7752C151.573 11.5047 151.119 12.5209 151.066 13.5632C151.013 13.9801 150.986 14.423 151.013 14.8399C151.013 15.2829 151.039 15.6998 151.066 16.1167C151.119 17.159 151.599 18.1491 152.4 18.8787C153.2 19.5822 154.213 19.9209 155.253 19.8949C156.293 19.9209 157.306 19.5561 158.106 18.9308C158.906 18.2794 159.36 17.2371 159.493 15.804ZM156.266 23.9596C155.626 23.9596 154.96 23.9075 154.346 23.7772C153.84 23.673 153.333 23.4906 152.853 23.2822C152.453 23.0998 152.079 22.8653 151.786 22.6308C151.519 22.4484 151.279 22.2139 151.039 21.9794V29.1709C151.039 29.4315 150.933 29.6399 150.746 29.7962C150.586 29.9526 150.346 30.0829 150.106 30.0829H147.466C146.959 30.0829 146.533 29.666 146.533 29.1709V7.02306C146.533 6.52799 146.959 6.11109 147.466 6.11109H150.106C150.613 6.11109 151.039 6.52799 151.039 7.02306V7.80475C151.253 7.54419 151.519 7.33574 151.786 7.15334C152.133 6.89278 152.506 6.68433 152.853 6.50194C153.333 6.29349 153.84 6.11109 154.346 6.00687C154.96 5.87659 155.626 5.82447 156.266 5.82447C157.333 5.79841 158.426 6.03292 159.413 6.47588C160.32 6.89278 161.147 7.49207 161.787 8.2477C162.453 9.00333 162.987 9.8632 163.333 10.8012C163.707 11.7653 163.92 12.7554 163.973 13.7977C164 14.1364 164 14.5273 164 14.9963C164 15.4653 164 15.8561 163.973 16.1949C163.92 17.2111 163.707 18.2273 163.333 19.1913C162.96 20.1294 162.453 20.9892 161.787 21.7449C161.12 22.5005 160.32 23.0737 159.413 23.5167C158.426 23.9596 157.36 24.1681 156.266 24.1681" fill="#001B38"/>
</svg>
