<svg width="164" height="19" viewBox="0 0 164 19" fill="none" xmlns="http://www.w3.org/2000/svg">
<path d="M149.291 1.55837C149.291 0.683491 150.002 0 150.85 0H162.442C163.316 0 164 0.710831 164 1.55837V7.24506C164 8.11994 163.289 8.80343 162.442 8.80343H161.239C160.364 8.80343 159.051 9.15885 158.286 9.56895L154.076 11.9202C153.31 12.3303 153.009 12.0295 153.365 11.264L153.857 10.1978C154.212 9.40491 153.802 8.7761 152.927 8.7761H150.822C149.947 8.7761 149.264 8.06526 149.264 7.21772V1.55837" fill="url(#paint0_linear_4_160)"/>
<path d="M149.291 16.3767C149.373 16.3767 149.455 16.3494 149.51 16.322C149.565 16.2947 149.592 16.24 149.592 16.1307C149.592 16.076 149.592 16.0213 149.565 15.994C149.537 15.9666 149.51 15.9393 149.483 15.9119C149.455 15.8846 149.401 15.8846 149.373 15.8846C149.319 15.8846 149.291 15.8846 149.237 15.8846H148.963V16.3494L149.291 16.3767ZM149.291 15.5565C149.537 15.5565 149.729 15.6112 149.838 15.7206C149.947 15.8299 150.029 15.9666 150.029 16.158C150.029 16.322 149.975 16.4587 149.893 16.5408C149.811 16.6228 149.701 16.6775 149.565 16.7048L150.029 17.4977H149.565L149.1 16.7321H148.936V17.4977H148.526V15.5839L149.291 15.5565ZM148.088 17.0055C148.143 17.1696 148.225 17.3063 148.334 17.4156C148.444 17.525 148.58 17.6343 148.717 17.689C148.881 17.7437 149.045 17.7984 149.209 17.7984C149.401 17.7984 149.565 17.771 149.701 17.689C149.865 17.6343 149.975 17.525 150.084 17.4156C150.193 17.3063 150.275 17.1696 150.33 17.0055C150.385 16.8415 150.412 16.6775 150.412 16.5134C150.412 16.3494 150.385 16.1853 150.33 16.0213C150.275 15.8573 150.193 15.7206 150.084 15.6112C149.975 15.5018 149.838 15.3925 149.701 15.3378C149.537 15.2831 149.373 15.2284 149.209 15.2284C149.018 15.2284 148.854 15.2558 148.717 15.3378C148.553 15.3925 148.444 15.5018 148.334 15.6112C148.225 15.7206 148.143 15.8573 148.088 16.0213C148.034 16.1853 148.006 16.3494 148.006 16.5134C148.006 16.7048 148.034 16.8688 148.088 17.0055ZM147.596 15.8299C147.678 15.6112 147.815 15.4198 147.979 15.2558C148.143 15.0917 148.334 14.955 148.553 14.873C148.772 14.791 148.991 14.7363 149.237 14.7363C149.483 14.7363 149.701 14.791 149.92 14.873C150.139 14.955 150.33 15.0917 150.494 15.2558C150.658 15.4198 150.795 15.6112 150.877 15.8299C150.959 16.0486 151.014 16.2674 151.014 16.5134C151.014 16.7595 150.959 16.9782 150.877 17.1969C150.795 17.4156 150.658 17.607 150.494 17.7711C150.33 17.9351 150.139 18.0445 149.92 18.1538C149.701 18.2358 149.483 18.2905 149.237 18.2905C148.991 18.2905 148.772 18.2358 148.553 18.1538C148.334 18.0718 148.143 17.9351 147.979 17.7711C147.815 17.607 147.678 17.4156 147.596 17.1969C147.514 16.9782 147.459 16.7595 147.459 16.5134C147.459 16.2674 147.514 16.0486 147.596 15.8299Z" fill="#2D2E2C"/>
<path d="M143.413 11.182H140.843C140.652 11.182 140.597 11.0726 140.597 10.9359L140.624 10.6079C140.679 9.92435 141.308 9.43224 142.155 9.43224C142.976 9.43224 143.632 9.92435 143.686 10.5805L143.714 10.9086C143.714 11.0726 143.659 11.182 143.413 11.182ZM142.073 6.75293C139.312 6.75293 137.316 8.74874 137.316 11.0179V14.0527C137.316 16.5953 139.203 18.345 142.073 18.345C143.632 18.345 144.753 17.7982 145.546 17.0327C145.928 16.65 146.229 16.2125 146.475 15.7751C146.612 15.529 146.557 15.283 146.393 15.201L144.069 14.0253C143.933 13.9433 143.796 13.998 143.714 14.2167C143.386 15.0369 142.839 15.4197 142.046 15.4197C141.171 15.4197 140.57 14.8455 140.57 14.08V13.5606C140.57 13.3965 140.652 13.3145 140.843 13.3145H146.53C146.667 13.3145 146.776 13.2325 146.776 13.0684V11.0179C146.749 8.77608 144.807 6.75293 142.073 6.75293Z" fill="#2D2E2C"/>
<path d="M131.903 9.62362C132.641 9.62362 133.161 10.0884 133.571 11.0453C133.653 11.2093 133.762 11.264 133.926 11.182L136.223 10.1431C136.36 10.0611 136.414 9.92436 136.332 9.73299C136.113 9.24087 135.895 8.80343 135.594 8.42067C134.829 7.38175 133.68 6.80762 131.876 6.80762C128.95 6.80762 127.201 8.55737 127.201 11.1V13.9707C127.201 16.5133 128.95 18.2357 131.876 18.2357C133.516 18.2357 134.61 17.7436 135.375 16.8687C135.785 16.4312 136.086 15.8844 136.332 15.283C136.414 15.0916 136.36 14.9822 136.223 14.9002L133.926 13.834C133.762 13.7519 133.653 13.8066 133.571 13.9707C133.161 14.9002 132.641 15.3923 131.903 15.3923C131.028 15.3923 130.481 14.7909 130.481 14.0253V10.9633C130.481 10.2524 131.056 9.62362 131.903 9.62362Z" fill="#2D2E2C"/>
<path d="M125.15 7.08105H122.361C122.197 7.08105 122.115 7.16307 122.115 7.32711V17.7709C122.115 17.935 122.197 18.017 122.361 18.017H125.15C125.287 18.017 125.369 17.935 125.369 17.7709V7.32711C125.341 7.13573 125.259 7.08105 125.15 7.08105Z" fill="#2D2E2C"/>
<path d="M123.728 2.46069C122.826 2.46069 122.088 3.19887 122.088 4.10108C122.088 5.0033 122.826 5.74148 123.728 5.74148C124.631 5.74148 125.369 5.0033 125.369 4.10108C125.396 3.19887 124.631 2.46069 123.728 2.46069Z" fill="#2D2E2C"/>
<path d="M120.639 7.08105H117.659C117.55 7.08105 117.44 7.16308 117.413 7.27244L115.663 12.3303C115.581 12.5764 115.417 13.2052 115.39 13.5059H115.308C115.253 13.2052 115.144 12.631 115.034 12.3303L113.203 7.2451C113.148 7.13574 113.093 7.08105 112.957 7.08105H109.976C109.758 7.08105 109.703 7.21776 109.758 7.40914L113.968 17.8256C114.023 17.935 114.105 17.9897 114.214 17.9897H116.401C116.511 17.9897 116.62 17.935 116.647 17.8256L120.885 7.40914C120.94 7.21776 120.858 7.08105 120.639 7.08105Z" fill="#2D2E2C"/>
<path d="M105.247 13.9433C105.247 14.7088 104.618 15.3103 103.798 15.3103C102.95 15.3103 102.376 14.7362 102.376 13.9433V11.1273C102.376 10.3618 102.95 9.81498 103.798 9.81498C104.645 9.81498 105.247 10.3891 105.247 11.1273V13.9433ZM108.254 3.19873H105.493C105.383 3.19873 105.247 3.28076 105.247 3.4448V6.69824C105.247 7.05366 105.329 7.73715 105.329 7.73715C104.864 7.32705 104.071 7.08099 103.524 7.08099C100.954 7.08099 99.1226 8.80341 99.1226 11.346V13.7246C99.1226 16.4586 100.708 17.9896 103.579 17.9896C104.235 17.9896 105.001 17.7709 105.493 17.3608C105.629 17.2514 105.793 17.2788 105.793 17.4701V17.8256C105.793 17.9076 105.876 17.9896 105.985 17.9896H108.254C108.391 17.9896 108.5 17.9076 108.5 17.7435V3.41745C108.5 3.28076 108.391 3.19873 108.254 3.19873Z" fill="#2D2E2C"/>
<path d="M92.9983 12.9591H91.5767C91.3306 12.9591 91.2486 12.8224 91.3033 12.6857L91.7954 10.7719C92.0414 9.897 92.2055 8.85808 92.2602 8.2566H92.3422C92.3969 8.85808 92.5336 9.897 92.7523 10.7719L93.2444 12.6857C93.2991 12.795 93.1897 12.9591 92.9983 12.9591ZM93.5451 3.36277C93.4905 3.25341 93.4358 3.19873 93.2991 3.19873H91.1939C91.0572 3.19873 91.0025 3.25341 90.9479 3.36277L86.3821 17.6889C86.3001 17.8802 86.4094 17.9896 86.6281 17.9896H89.5809C89.6902 17.9896 89.7449 17.9349 89.7996 17.8256L90.4831 15.693C90.5377 15.5837 90.5651 15.5563 90.7291 15.5563H93.8185C93.9826 15.5563 94.0373 15.5837 94.0646 15.693L94.7207 17.8256C94.7754 17.9349 94.8028 17.9896 94.9668 17.9896H97.9468C98.1929 17.9896 98.2476 17.8802 98.1929 17.6889L93.5451 3.36277Z" fill="#2D2E2C"/>
<path d="M77.9342 11.182H75.3642C75.1729 11.182 75.1182 11.0726 75.1182 10.9359L75.1455 10.6079C75.2002 9.92435 75.829 9.43224 76.6765 9.43224C77.4967 9.43224 78.1529 9.92435 78.2076 10.5805L78.2349 10.9086C78.2076 11.0726 78.1802 11.182 77.9342 11.182ZM76.5672 6.75293C73.8059 6.75293 71.8101 8.74874 71.8101 11.0179V14.0527C71.8101 16.5953 73.6965 18.345 76.5672 18.345C78.1256 18.345 79.2465 17.7982 80.0393 17.0327C80.4221 16.65 80.7229 16.2125 80.9689 15.7751C81.1056 15.529 81.0509 15.283 80.8869 15.201L78.563 14.0253C78.4263 13.9433 78.2896 13.998 78.2076 14.2167C77.8795 15.0369 77.3327 15.4197 76.5399 15.4197C75.665 15.4197 75.0635 14.8455 75.0635 14.08V13.5606C75.0635 13.3965 75.1455 13.3145 75.3369 13.3145H80.9962C81.1329 13.3145 81.2423 13.2325 81.2423 13.0684V11.0179C81.2696 8.77608 79.3285 6.75293 76.5672 6.75293Z" fill="#2D2E2C"/>
<path d="M70.4157 7.13574C70.2516 7.1084 70.0603 7.08105 69.8142 7.08105C68.912 7.08105 68.0645 7.49115 67.709 7.98327C67.5997 8.09263 67.4083 8.06529 67.4083 7.87391V7.32711C67.4083 7.16307 67.3263 7.08105 67.1622 7.08105H64.9204C64.7837 7.08105 64.6743 7.16307 64.6743 7.32711V17.7709C64.6743 17.935 64.7563 18.017 64.9204 18.017H67.6817C67.8184 18.017 67.9278 17.935 67.9278 17.7709V11.5374C67.9278 10.7173 68.5019 10.1158 69.3494 10.1158C69.7049 10.1158 70.0056 10.1705 70.279 10.2251C70.4977 10.2798 70.6344 10.1978 70.6344 9.97908V7.32711C70.6344 7.24509 70.5524 7.13574 70.4157 7.13574Z" fill="#2D2E2C"/>
<path d="M57.9761 15.4744H57.1013C56.6091 15.4744 56.3357 15.1736 56.3357 14.5175C56.3357 14.0527 56.6638 13.7246 57.1286 13.7246H59.1244C59.2611 13.7246 59.3158 13.9707 59.3158 14.0527C59.2611 14.9002 58.605 15.4744 57.9761 15.4744ZM57.8941 6.80762C56.4451 6.80762 55.3515 7.27239 54.5587 8.01057C54.1212 8.42067 53.7658 8.88545 53.4651 9.4049C53.3284 9.65096 53.383 9.89702 53.5471 9.97904L55.871 11.1547C56.0077 11.2367 56.1444 11.182 56.2264 10.9633C56.5545 10.1431 57.1013 9.76032 57.8941 9.76032C58.769 9.76032 59.3158 10.3618 59.3158 11.1V11.2093C59.3158 11.3734 59.2338 11.4554 59.0697 11.4554H56.9919C54.9141 11.4554 53.2463 12.5763 53.2463 14.5448V14.7909C53.2463 16.7867 54.75 17.9896 56.7732 17.9896H57.5934C58.2222 17.9896 58.933 17.7709 59.4251 17.3881C59.5072 17.3061 59.6439 17.3335 59.6712 17.4155L59.7532 17.8256C59.7806 17.9349 59.8626 18.017 59.9993 18.017H62.2958C62.4325 18.017 62.5419 17.9349 62.5419 17.7709V11.1273C62.5419 8.5847 60.7648 6.80762 57.8941 6.80762Z" fill="#2D2E2C"/>
<path d="M52.3167 7.08105H49.4734C49.3367 7.08105 49.2273 7.16308 49.2273 7.27244L48.161 11.6741C48.0517 12.1663 47.9423 12.8771 47.915 13.3692H47.833C47.8056 12.8771 47.7236 12.2483 47.5869 11.6741L46.5207 7.27244C46.4933 7.16308 46.4113 7.08105 46.2746 7.08105H43.9507C43.814 7.08105 43.732 7.16308 43.7047 7.27244L42.6657 11.6741C42.5564 12.1663 42.447 12.7951 42.4197 13.2599H42.365C42.3377 12.7951 42.2556 12.1663 42.1189 11.6741L41.0253 7.27244C40.998 7.16308 40.9433 7.08105 40.7793 7.08105H37.8813C37.6625 7.08105 37.6079 7.19042 37.6625 7.38179L40.9707 17.8256C41.0253 17.935 41.08 17.9897 41.2167 17.9897H43.2946C43.4313 17.9897 43.5133 17.935 43.5406 17.8256L44.8256 12.9591C44.9623 12.4123 45.0716 11.5101 45.0716 11.5101H45.1537C45.1537 11.5101 45.263 12.4397 45.3997 12.9591L46.6574 17.7983C46.6847 17.9076 46.7394 17.9897 46.9034 17.9897H48.9539C49.0633 17.9897 49.1453 17.935 49.2 17.8256L52.5628 7.38179C52.6174 7.21776 52.5354 7.08105 52.3167 7.08105Z" fill="#2D2E2C"/>
<path d="M36.487 7.08102H34.9012C34.6825 7.08102 34.6278 6.99901 34.6278 6.83497V5.35862C34.6278 5.19458 34.5732 5.13989 34.4091 5.13989H32.9328C32.8508 5.13989 32.7141 5.19457 32.6594 5.24925L29.734 8.17462V9.76033C29.734 9.92437 29.816 9.97905 29.9801 9.97905H31.1557C31.3744 9.97905 31.4291 10.0611 31.4291 10.2251V13.8886C31.4291 16.7047 33.1788 18.1537 35.4207 18.1537H36.4049C36.6237 18.1537 36.7057 18.0716 36.7057 17.9076V15.5017C36.7057 15.365 36.6237 15.2556 36.4596 15.2556H36.0769C35.12 15.2556 34.6552 14.6815 34.6552 13.6699V10.2524C34.6552 10.0884 34.7372 10.0064 34.9286 10.0064H36.5143C36.6783 10.0064 36.733 9.95171 36.733 9.78767V7.29974C36.7057 7.1357 36.651 7.08102 36.487 7.08102Z" fill="#2D2E2C"/>
<path d="M29.4606 3.08933C29.0505 3.00731 28.3943 2.92529 27.7929 2.92529C24.3207 2.92529 23.0084 5.33121 23.0084 7.245V7.81913C23.0084 7.98317 22.9264 8.06519 22.7623 8.06519H22.2155C22.0788 8.06519 21.9695 8.14721 21.9695 8.31125V10.7718C21.9695 10.9359 22.0515 11.0179 22.2155 11.0179H22.7623C22.9811 11.0179 23.0084 11.0999 23.0084 11.2639V17.7982C23.0084 17.9622 23.0904 18.0442 23.2545 18.0442H26.0158C26.1798 18.0442 26.2618 17.9622 26.2618 17.7982V11.2639C26.2618 11.0999 26.3439 11.0179 26.5079 11.0179H28.0389C28.203 11.0179 28.285 10.9359 28.285 10.7718V8.31125C28.285 8.14721 28.203 8.06519 28.0389 8.06519H26.5079C26.3165 8.06519 26.2618 7.98317 26.2618 7.81913V7.19031C26.2618 6.37012 26.836 5.85066 27.7382 5.85066C28.0389 5.85066 28.367 5.90534 28.6404 5.96002C28.8044 6.0147 28.8865 5.96002 28.9411 5.82332L29.6793 3.41742C29.7067 3.25338 29.652 3.11667 29.4606 3.08933Z" fill="#2D2E2C"/>
<path d="M17.3216 14.08C17.3216 14.8455 16.7202 15.447 15.9 15.447C15.0251 15.447 14.4236 14.8455 14.4236 14.08V11.018C14.4236 10.2798 15.0251 9.65096 15.9 9.65096C16.7202 9.65096 17.3216 10.2524 17.3216 11.018V14.08ZM15.9 6.80762C13.0293 6.80762 11.1428 8.55737 11.1428 11.1V13.9707C11.1428 16.5133 13.0293 18.2357 15.9 18.2357C18.716 18.2357 20.6024 16.5133 20.6024 13.9707V11.1C20.6024 8.55737 18.716 6.80762 15.9 6.80762Z" fill="#2D2E2C"/>
<path d="M6.11236 9.15877C4.82739 8.66666 3.43305 8.31124 3.43305 7.24498C3.43305 6.39745 4.06187 5.82331 4.88207 5.82331H5.23748C6.03034 5.82331 6.57714 6.20606 6.90522 7.02626C6.98724 7.24498 7.12393 7.27232 7.26063 7.21764L9.58452 6.04203C9.72122 5.96001 9.80324 5.71395 9.66654 5.46789C9.47516 5.11247 9.25644 4.75705 8.9557 4.45631C8.13551 3.5541 6.9599 2.87061 5.23748 2.87061H4.88207C1.9567 2.87061 0.124932 4.62036 0.124932 7.27232C0.124932 9.97897 1.87468 10.9905 4.03453 11.8654C5.4562 12.4396 6.65916 12.7403 6.65916 13.9159C6.65916 14.8728 5.92098 15.3102 5.07345 15.3102H4.49931C3.70645 15.3102 3.15966 14.9275 2.83158 14.1073C2.74956 13.8886 2.61286 13.8612 2.47616 13.9159L0.152272 15.0915C0.0155723 15.1735 -0.0664475 15.4196 0.0702517 15.6657C0.288971 16.0484 0.53503 16.4038 0.835768 16.7592C1.62862 17.6615 2.80424 18.2629 4.47197 18.2629H5.21014C8.19019 18.2629 9.93994 16.5405 9.93994 13.8886C9.93994 11.1272 8.32689 10.0336 6.11236 9.15877Z" fill="#2D2E2C"/>
<defs>
<linearGradient id="paint0_linear_4_160" x1="156.654" y1="2.1964" x2="156.654" y2="13.2525" gradientUnits="userSpaceOnUse">
<stop stop-color="#F2C069"/>
<stop offset="1" stop-color="#EB8F3B"/>
</linearGradient>
</defs>
</svg>
