<svg width="288" height="288" viewBox="0 0 288 288" fill="none" xmlns="http://www.w3.org/2000/svg">
<path d="M41.75 126.47C38.75 124.47 35.04 124.16 31.5 124.16H13.5V163.89H17.5V127.76H31.29C33.76 127.76 35.85 127.7 38.1 128.76C39.4771 129.405 40.642 130.429 41.458 131.712C42.274 132.995 42.7074 134.484 42.7074 136.005C42.7074 137.526 42.274 139.015 41.458 140.298C40.642 141.581 39.4771 142.605 38.1 143.25C35.85 144.33 33.76 144.25 31.29 144.25H26.08V147.85H31.5C35.04 147.85 38.75 147.58 41.75 145.54C43.2771 144.458 44.5227 143.026 45.3823 141.363C46.2419 139.701 46.6905 137.856 46.6905 135.985C46.6905 134.113 46.2419 132.269 45.3823 130.607C44.5227 128.944 43.2771 127.512 41.75 126.43V126.47Z" fill="#333132"/>
<path d="M175.03 127.76V124.16H146.89H143.3V127.76V142.22V145.82V160.29V163.88H146.89H175.03V160.29H146.89V145.82H167.48V142.22H146.89V127.76H175.03Z" fill="#333132"/>
<path d="M56.27 163.89H52.14L69.14 124.16H73.59L90.66 163.89H86.29L71.36 128.67L56.27 163.89Z" fill="#333132"/>
<path d="M115.37 150.62V163.89H111.37V150.62L97.6 124.16H102L113.33 146.44L125 124.16H129.35L115.37 150.62Z" fill="#333132"/>
<path d="M207.23 163.89H203.31L186.94 124.16H191.34L205.34 158.95L219.41 124.16H223.7L207.23 163.89Z" fill="#333132"/>
<path d="M243.06 130.83C246.09 128.403 249.853 127.073 253.736 127.059C257.619 127.044 261.392 128.345 264.44 130.75L267.26 127.94C263.466 124.858 258.712 123.204 253.825 123.264C248.938 123.325 244.227 125.096 240.51 128.27L243.06 130.83Z" fill="#333132"/>
<path d="M267 133.29C269.607 136.575 270.916 140.703 270.679 144.891C270.441 149.078 268.672 153.031 265.71 156C259.26 162.45 248.33 162.68 241.84 156.19C238.848 153.213 237.059 149.236 236.815 145.022C236.571 140.808 237.891 136.652 240.52 133.35L238 130.82C234.597 134.784 232.811 139.884 232.996 145.105C233.181 150.327 235.325 155.287 239 159C247 167 260.37 166.4 268.22 158.54C275.81 150.95 276.61 138.64 269.77 130.46L267 133.29Z" fill="#333132"/>
</svg>
