<svg id="Layer_1" data-name="Layer 1" xmlns="http://www.w3.org/2000/svg" viewBox="0 0 288 288"><defs><style>.cls-1{fill:none;}.cls-2{fill:#fff;}</style></defs><rect class="cls-1" width="288" height="288"/><path class="cls-2" d="M41.75,126.47c-3-2-6.71-2.31-10.25-2.31h-18v39.73h4V127.76H31.29c2.47,0,4.56-.06,6.81,1a8,8,0,0,1,0,14.49c-2.25,1.08-4.34,1-6.81,1H26.08v3.6H31.5c3.54,0,7.25-.27,10.25-2.31a11.71,11.71,0,0,0,0-19.11Z"/><polygon class="cls-2" points="175.03 127.76 175.03 124.16 146.89 124.16 143.3 124.16 143.3 127.76 143.3 142.22 143.3 145.82 143.3 160.29 143.3 163.88 146.89 163.88 175.03 163.88 175.03 160.29 146.89 160.29 146.89 145.82 167.48 145.82 167.48 142.22 146.89 142.22 146.89 127.76 175.03 127.76"/><path class="cls-2" d="M56.27,163.89H52.14l17-39.73h4.45l17.07,39.73H86.29L71.36,128.67Z"/><path class="cls-2" d="M115.37,150.62v13.27h-4V150.62L97.6,124.16H102l11.33,22.28L125,124.16h4.35Z"/><path class="cls-2" d="M207.23,163.89h-3.92l-16.37-39.73h4.4l14,34.79,14.07-34.79h4.29Z"/><path class="cls-2" d="M243.06,130.83a17.18,17.18,0,0,1,21.38-.08l2.82-2.81a20.9,20.9,0,0,0-26.75.33Z"/><path class="cls-2" d="M267,133.29A17.1,17.1,0,0,1,265.71,156c-6.45,6.45-17.38,6.68-23.87.19a17.15,17.15,0,0,1-1.32-22.84L238,130.82A20.8,20.8,0,0,0,239,159c8,8,21.37,7.4,29.22-.46,7.59-7.59,8.39-19.9,1.55-28.08Z"/></svg>