<svg width="185" height="250" viewBox="0 0 185 250" fill="none" xmlns="http://www.w3.org/2000/svg">
<path d="M167.844 0H16.46C7.36946 0 0 7.36946 0 16.46V232.893C0 241.983 7.36946 249.353 16.46 249.353H167.844C176.935 249.353 184.304 241.983 184.304 232.893V16.46C184.304 7.36946 176.935 0 167.844 0ZM26.13 186.261V162.846C26.13 160.975 27.6462 159.459 29.5169 159.459H52.9322C54.8029 159.459 56.3191 160.975 56.3191 162.846V186.261C56.3191 188.132 54.8029 189.648 52.9322 189.648H29.5169C27.6462 189.648 26.13 188.131 26.13 186.261ZM26.13 139.101V115.686C26.13 113.815 27.6462 112.299 29.5169 112.299H52.9322C54.8029 112.299 56.3191 113.815 56.3191 115.686V139.101C56.3191 140.972 54.8029 142.488 52.9322 142.488H29.5169C27.6462 142.488 26.13 140.971 26.13 139.101ZM134.917 228.212H49.3876C43.3999 228.212 38.5462 223.358 38.5462 217.371C38.5462 211.383 43.3999 206.529 49.3876 206.529H134.917C140.904 206.529 145.758 211.383 145.758 217.371C145.758 223.358 140.904 228.212 134.917 228.212ZM80.4445 159.458H103.86C105.731 159.458 107.247 160.975 107.247 162.845V186.261C107.247 188.131 105.731 189.648 103.86 189.648H80.4445C78.5738 189.648 77.0577 188.131 77.0577 186.261V162.845C77.0577 160.975 78.5738 159.458 80.4445 159.458ZM77.0577 139.101V115.686C77.0577 113.815 78.5738 112.299 80.4445 112.299H103.86C105.731 112.299 107.247 113.815 107.247 115.686V139.101C107.247 140.972 105.731 142.488 103.86 142.488H80.4445C78.5738 142.488 77.0577 140.971 77.0577 139.101ZM154.787 189.648H131.372C129.501 189.648 127.985 188.132 127.985 186.261V162.846C127.985 160.975 129.501 159.459 131.372 159.459H154.787C156.658 159.459 158.174 160.975 158.174 162.846V186.261C158.174 188.132 156.658 189.648 154.787 189.648ZM154.787 142.488H131.372C129.501 142.488 127.985 140.972 127.985 139.101V115.686C127.985 113.815 129.501 112.299 131.372 112.299H154.787C156.658 112.299 158.174 113.815 158.174 115.686V139.101C158.174 140.972 156.658 142.488 154.787 142.488ZM159.369 81.114C159.369 87.5099 154.184 92.6942 147.789 92.6942H36.5161C30.1202 92.6942 24.9353 87.5093 24.9353 81.114V33.8052C24.9353 27.4098 30.1202 22.2249 36.5161 22.2249H147.789C154.184 22.2249 159.369 27.4098 159.369 33.8052V81.114Z" fill="#165585"/>
</svg>
