<svg id="Layer_1" data-name="Layer 1" xmlns="http://www.w3.org/2000/svg" viewBox="0 0 288 288"><defs><style>.cls-1{fill:none;}.cls-2{fill:#fff;}</style></defs><rect class="cls-1" width="288" height="288"/><path class="cls-2" d="M126,134.88h-4L138.52,96h4.36l16.71,38.88h-4.26l-14.61-34.47Z"/><path class="cls-2" d="M191.89,121.9v13H188v-13L174.5,96h4.31l11.08,21.81L201.3,96h4.25Z"/><path class="cls-2" d="M142.62,192h-3.84l-16-38.88h4.31l13.72,34,13.76-34h4.21Z"/><path class="cls-2" d="M105.85,98.26c-2.94-2-6.57-2.26-10-2.26H78.23v38.88h3.88V99.52h13.5c2.41,0,4.46,0,6.67,1a7.83,7.83,0,0,1,0,14.19c-2.21,1.05-4.26,1-6.67,1h-5.1v3.53h5.31c3.46,0,7.09-.27,10-2.26a11.46,11.46,0,0,0,0-18.71Z"/><path class="cls-2" d="M200.34,159.46l2.77-2.77a20.45,20.45,0,0,0-26,.39l2.5,2.5A16.79,16.79,0,0,1,200.34,159.46Z"/><path class="cls-2" d="M203.11,162.19a16.68,16.68,0,1,1-26.2.16l-2.5-2.5a20.35,20.35,0,0,0,1.21,27.38c7.84,7.84,20.92,7.24,28.61-.45a20.53,20.53,0,0,0,1.63-27.34Z"/><polygon class="cls-2" points="109.51 156.1 109.51 152.53 81.56 152.53 77.99 152.53 77.99 156.1 77.99 170.48 77.99 174.05 77.99 188.43 77.99 192 81.56 192 109.51 192 109.51 188.43 81.56 188.43 81.56 174.05 102.02 174.05 102.02 170.48 81.56 170.48 81.56 156.1 109.51 156.1"/></svg>